REM MD5 3651f2f6aaaef6eb0f09d8f4757ab142
FILE "UEFA Champions League - Season 1999-2000 (Spain).bin" BINARY
  TRACK 01 MODE2/2352
    INDEX 01 00:00:00
  TRACK 02 AUDIO
    INDEX 00 45:56:02
    INDEX 01 45:58:02
  TRACK 03 AUDIO
    INDEX 00 52:11:37
    INDEX 01 52:13:37
REM LEADOUT 58:26:72
